<?xml version="1.0" encoding="utf-8"?>
<!-- Generator: Adobe Illustrator 26.0.0, SVG Export Plug-In . SVG Version: 6.00 Build 0)  -->
<svg version="1.1" id="katman_1" xmlns="http://www.w3.org/2000/svg" xmlns:xlink="http://www.w3.org/1999/xlink" x="0px" y="0px"
	 viewBox="0 0 299.63 299.63" style="enable-background:new 0 0 299.63 299.63;" xml:space="preserve">
<style type="text/css">
	.st0{fill:#FFFFFF;stroke:#164194;stroke-width:0.5626;stroke-miterlimit:10;}
	.st1{fill-rule:evenodd;clip-rule:evenodd;fill:#164194;}
	.st2{fill-rule:evenodd;clip-rule:evenodd;fill:#EF7D00;}
	.st3{fill-rule:evenodd;clip-rule:evenodd;fill:#FFFFFF;}
	.st4{fill-rule:evenodd;clip-rule:evenodd;fill:#3AAA35;}
	.st5{fill-rule:evenodd;clip-rule:evenodd;fill:#F07E08;}
</style>
<g>
	<circle class="st0" cx="149.82" cy="149.82" r="149.54"/>
	<g>
		<path class="st1" d="M149.46,250.11c54.82,0,99.52-45.12,99.52-100.4c0-55.28-44.7-100.36-99.52-100.36
			c-54.77,0-99.48,45.08-99.48,100.36C49.98,204.98,94.68,250.11,149.46,250.11L149.46,250.11z"/>
		<path class="st2" d="M149.5,141.51c20.57,0,37.35-16.7,37.35-37.16c0-20.5-16.77-37.2-37.35-37.2c-20.54,0-37.31,16.7-37.31,37.2
			C112.19,124.82,128.97,141.51,149.5,141.51L149.5,141.51z"/>
		<path class="st3" d="M49.69,145.39c14.7,0.13,26.5,2.78,37.54,6.03c3.75,0.55,7.75,1.09,10.91-0.67
			c16.55-9.23,23.3-9.77,38.97-0.93c8.34,3.79,16.43,3.67,24.52,0.17c10.32-5.94,20.14-9.23,28.52-5.14
			c10.32,5.1,19.21,8.43,30.5,2.74c5.56-2.74,13.36-4.85,28.31-5.1l0.59,5.81c-5.98-0.84-11.54-0.84-16.68,0
			c-2.95,0.34-5.6,1.35-8.09,2.78c-10.45,5.22-20.43,5.6-29.83,0.17c-9.23-5.73-18.41-5.77-27.6-0.04
			c-10.28,7.25-21.74,8.01-34.59,0.84c-8.13-4.21-16.14-6.95-23-2.23c-9.52,4.93-18.24,11.17-35.05,3.62
			c-5.98-1.94-14.75-2.4-25.03-2.02V145.39z"/>
		<path class="st3" d="M49.43,159.8l1.94,7.79c14.96-0.63,30.63-1.1,42.93,0.25c7.04,0.17,12.72-1.1,16.43-4.42
			c9.82-7.33,11.5-3.34,23.93,3.92c2.35,1.37,25.58,5.72,35.85-3.11c12.43-10.68,12.54-2.62,26.67,3.36
			c3.33,1.41,12.98,0.13,19.63-1.73c10.49-0.93,20.98-1.31,31.47-1.35l1.9-6.57c-10.91,0-21.53-1.77-34.72,3.03
			c-8.76,2.7-16.06,6.23-20.58,1.69c-11.47-11.53-15.19-10.2-20.76-6.11c-2.69,2.01-5.92,6.46-9.93,7.01
			c-10.39,1.44-27.53,1.33-30.03-0.9c-13.45-11.98-17.89-11.43-24.86-2.3c-4.33,5.66-14.39,4.41-24.16,2.17
			C74.63,160.01,61.99,159.3,49.43,159.8L49.43,159.8z"/>
		<path class="st3" d="M51.71,174.72l1.69,5.73c10.74-2.11,24.35-0.51,33.37,0.8c10.95,1.26,16.46-1.48,19.67-4.94
			c8.26-8.88,10.12-1.88,12.69-2.1c2.11-0.18,4.8-5.39,17.78,4.68c1.44,1.12,25.92,2.86,28.69,0.04
			c10.84-11.04,14.28-4.34,16.47-4.34c1.97,0,2.59-5.98,12.76,2.03c2.64,2.08,6.86,4.05,10.92,4.38c4.62,0.37,9.17-1.5,14.24-2.65
			c8.92-2.04,17.15-0.25,25.74-0.34l1.26-5.06l-29.7,0.93c-12.51,1.64-19.11,3.21-24.23-1.62c-9.48-8.95-14.02-8.45-24.61,1.16
			c-2.61,2.37-21.11,4.37-32.84-0.03c-1.17-0.44-5.97-2.62-6.81-3.3c-9.94-8.13-14.27-5.62-22.46,3.32
			c-2.21,2.42-11.54,2.28-23.09,1.14L51.71,174.72z"/>
		<path class="st3" d="M57.44,188.79l1.69,5.14c0,0,17.25-2.45,23.05-2.49c17.01-0.11,14.49,1.14,22.67-5.48
			c2.65-2.06,5.27-1.81,7.79,0.04c3.33,2.4,2.78,5.69,7.75,6.36c2.74-0.04,4.89-3.41,7.67-6.24c2.21-2.24,5.39-2.23,9.06,0.04
			c2.28,0.88,3.75,3.64,6.78,4.89c3.21,1.32,10.63,0.71,13.86-0.55c5.88-2.3,8.72-5.65,12.38-5.73c1.85,0.13,3.62,0.59,5.53,2.15
			c2.54,2.09,3.65,3.5,5.67,3.58c3.37-0.34,5.15-3.07,7.77-4.93c3.29-1.81,6.7-0.88,10.28,2.74c4.17,3.79,11.21,3.32,23.97,1.85
			c4.57-0.52,18.41,0.25,18.41,0.25l2.28-4.93c0,0-26.66-0.8-35.52-0.21c-6.37,0.42-11.67,0.84-13.19-2.95
			c-1.39-2.57-2.99-3.45-4.68-3.5c-4.86-0.14-7.12,4.91-8.99,5.01c-1.79,0.1-4.04-5.15-10.56-5.14c-1.49,0-3.94,1.07-6.01,3.63
			c-3.22,3.98-6.18,4.18-10.9,3.84l-12.19-0.42c-2.43-0.06-4.85-1.27-6.92-3.41c-2.14-2.21-4.94-3.94-6.58-3.6
			c-2.87,0.04-5.78,6.53-8.55,6.53c-1.55,0-6.64-14.84-18.53,1.03c-4.31,5.75-18.78,1.03-32.2,1.12
			C66.27,187.46,57.44,188.79,57.44,188.79z"/>
		<path class="st3" d="M62.29,200.5l4.26,5.56c19.42,1.47,27.68,0.49,32.32-5.6c3.36-4.41,7.88-4.34,11.71,0.17
			c4.59,6.74,20.14,5.73,22.88,0.25c4.17-5.27,8.17-5.48,12.01-0.63c3.41,4,7.04,3.96,10.79-0.21c3.75-4,7.63-4.51,11.71,0
			c5.69,6.99,19.87,5.97,23.74,0.49c3.05-4.31,8.08-4.88,12.07-0.58c1.46,1.58,2.64,3.7,4.72,4.09c6.22,1.15,25.24,1.56,25.24,1.56
			l4.17-6.7c0,0-9.59-1.42-12.81-1.26c-10.34,0.51-19.51,2.12-22.08-0.8c-4.9-5.58-8.79-7.17-12.56-3.41
			c-5.35,5.33-14.96,7.16-20.31,0.93c-3.83-2.82-7.37-2.82-10.58,0.04c-5.94,6.7-11.63,5.94-17.06,0.04
			c-5.14-5.06-10.24-5.79-12.98,0c-2.52,5.33-13.95,7.75-19.09-0.17c-3.03-3.03-6.27-3.43-8.3-0.04
			c-3.45,5.73-11.33,5.98-20.15,5.71C74.85,199.72,69.45,200.08,62.29,200.5L62.29,200.5z"/>
		<path class="st3" d="M70.8,212.68l4.42,4.89c0,0,7,1.22,9.31,0.84c0.87-0.14,2.53-0.9,3.24-1.43c6.59-4.92,12.68-10.45,18.2-1.31
			c1.31,1.64,4.97,2.11,10.28,1.77c0,0,15.39,0.61,20.39-0.38c2.04-0.4,3.16-2.23,4.26-3.96c0.88-1.98,3.87-4.31,6.61-3.3
			c6.43,2.39,7.31-5.69,15.25,5.41c2.35,3.28,18.6,1.77,28.1,1.08c6.81-0.5,9.61-7.61,13.36-6.94c1.85,0.25,3.54,1.39,5.1,3.29
			c2.4,3.12,8.3,4.51,15.42,4.47l5.56-6.07c-15.59,2.02-20.26-0.97-25.62-5.94c-2.91-2.69-6.87-2.57-10.03,1.77
			c-1.81,2.87-4.21,4.26-7.04,4.63h-18.92c-1.47-0.08-3.03-1.52-4.63-4.89c-2.4-3.37-5.22-4.13-8.64-0.97
			c-2.57,2.49-5.56,2.4-8.97-0.21c-2.87-2.06-5.65-2.44-7.33,0.55c-1.31,3.08-3.71,5.18-8.05,5.6l-20.86-0.25
			c-2.11-1.1-3.49-2.62-4.59-4.34c-2.25-3.52-5.69-3.08-8.55-0.08c-2.91,4.09-6.83,5.98-11.8,5.48L70.8,212.68z"/>
		<path class="st3" d="M80.78,223l7.37,6.95c-0.67-2.23,0.13-4.26,2.7-5.94c4-2.61,6.7-1.38,9.61,2.78
			c0.67,0.95,2.36,2.66,3.41,3.16c1.96,0.93,34.92,1.07,36.91-0.04c4.11-2.29,4.59-9.1,12.01-7.79c2.65,0.59,3.44,2.94,6.19,6.02
			c0.77,0.86,1.61,1.2,4.22,1.35c8.9,0.53,27.45,3.25,35.64-0.25c1.67-0.72,2.44-2.7,3.12-4.85c1.39-2.95,2.87-4.38,6.87-3.24
			c3.45,1.64,6.32,3.58,5.48,6.07l6.4-5.56c-2.4,1.47-5.52,2.11-6.78,0.8c0,0-4.85-6.53-7.33-6.49c-3.83-0.46-6.15,1.81-7.79,5.39
			c-1.56,2.36-3.88,3.62-7.16,3.45c-9.02,0.21-18.08,0.29-27.64-1.22c-2.57-0.08-4.72-1.43-6.45-4.04c-2.19-3.5-5.86-6.07-10.2-2.91
			c-4.47,5.27-5.52,9.14-15.51,8.6c0,0-17.76-0.05-23.66-0.24c-2.64-0.09-4.49-2.86-6-5.36c-3.19-5.25-6.87-5.6-10.53-0.46
			C88.62,224.06,85.25,225.02,80.78,223L80.78,223z"/>
		<path class="st3" d="M98.94,237.66l9.61,4.85l0.08-0.59c10.95,2.02,24.48,2.4,32.32-0.04c9.23-4.97,11.74-5.22,19.42-0.25
			c1.08,0.7,21.4,0.59,31.22-0.17v0.76l10.07-5.06c-13.4,0.21-24.99,0.37-40.26-0.46c-2.16-0.12-5.24-3.05-6.88-4.3
			c-3.77-2.87-6.56-0.22-12.6,4.13C138.46,239.01,113.6,238.21,98.94,237.66L98.94,237.66z"/>
		<path class="st4" d="M204.48,149.82l9.77-0.13c-5.18-22.58-15.08-41.5-27.47-58.78c0.34-0.63,1.39,0.29,2.11,0.42l1.69,2.28
			l0.25,0.04l1.94,2.87l0.42-0.04l-0.51-3.45l3.24,4.59v-4.34l2.78,2.78l0.76,3.92l1.69-3.2l1.85,1.52l1.05,5.52
			c0.51-0.38,0.97-1.1,1.22-2.78c0.21-1.47,0.04-2.86-0.25-4.26c-1.1-3.67-3.29-6.32-6.15-8.26c-2.53-1.05-5.44-1.77-8.64-2.19
			l-0.13-0.38h3.79l-1.98-1.77l0.29-0.13l7.04,2.19l-3.45-4.26l0.29-0.38l2.15,0.29l3.62,2.95l-0.97-4.21
			c0.76,0.08,1.6,0.34,2.49,0.84l4.55,3.62c-0.08-2.65-1.47-5.22-5.31-7.79c-3.54-1.85-7.37-2.06-11.38-0.93
			c-3.83,1.6-6.49,4.55-7.75,8.97l-0.46,1.9c-4.76-3.33-9.35-6.4-13.44-6.02c-6.66,0.67-10.41,4.09-12.35,9.18l-0.42,2.95l4.21-5.35
			l-0.25,4.17c-2.61,2.02-4.09,4.51-4.63,7.5c-0.34,3.33,0.08,6.57,1.35,9.31l0.21-0.25l0.76-6.78l0.42-0.04l1.94,4.76l1.98-8.76
			l0.25-0.04l2.36,4.21l0.42-5.77l0.34,0.13l3.03,3.45l1.14-4.04l5.44-1.69c-2.91,2.28-5.31,4.76-6.7,7.63
			c-2.02,4-2.06,8.09-1.69,12.22c1.18,2.91,3.29,5.31,6.32,7.16l0.42-0.38l-2.28-3.41l0.29-0.17l2.23,1.64l-2.28-5.27l0.04-0.13
			l2.82,1.43l-3.08-5.1l0.04-0.25l2.87,2.06l-2.23-6.11l0.08-0.13l2.65,1.9l-1.64-4.17l0.17,0.04l1.56,1.56l2.57-6.19l0.38-0.08
			l-0.21,0.93c-0.46,2.15-0.59,4.26-0.13,6.32c0.93,4.09,3.58,7.75,6.74,11.21l0.59-0.25l-3.12-6.36l0.04-0.13l2.74,1.05l0.17-0.21
			l-2.78-3.62l0.13-0.17l4.09,1.47l-3.79-5.1l3.2,1.64l0.25-0.51l-2.49-3.58l1.39,1.18l-1.39-7.37
			C192.18,108.36,200.31,126.98,204.48,149.82L204.48,149.82z"/>
		<path class="st5" d="M162.01,91.21l4-4.8v2.99C164.67,89.65,163.36,90.32,162.01,91.21L162.01,91.21z"/>
		<polygon class="st5" points="168.92,86.91 168.92,88.98 166.78,89.1 		"/>
		<polygon class="st5" points="169.89,88.89 172,88.98 173.85,86.28 172.8,86.24 		"/>
		<path class="st5" d="M172.59,89.19l0.04-0.34l4.63-0.93l2.11,2.28C177.31,89.61,175.03,89.31,172.59,89.19L172.59,89.19z"/>
		<path class="st3" d="M100.09,113.41c9.63-2.19,18.72-2.33,26.56,1.02c5.62-5.69,6.53-4.23,22.62-2.77
			c-9.23-5.29-17.22-6.17-23.2-1.06C117.46,104.91,103.48,110.06,100.09,113.41L100.09,113.41z"/>
		<path class="st3" d="M113.42,121.22c9.49-2.15,18.46-2.26,26.23,0.95c5.58-5.47,6.46-4.05,22.36-2.66
			c-9.12-5.03-17.04-5.91-22.95-0.99C130.56,113.09,116.74,117.98,113.42,121.22L113.42,121.22z"/>
	</g>
	<g>
		<path d="M125.86,280.17l-2.44-0.54l3.45-15.54c-0.71,0.43-1.61,0.82-2.68,1.17c-1.08,0.35-2.03,0.58-2.85,0.69l0.52-2.36
			c1.51-0.34,2.87-0.85,4.09-1.54s2.14-1.41,2.76-2.17l1.57,0.35L125.86,280.17z"/>
		<path d="M134.52,277l2.41-0.01c0.1,1.14,0.42,1.99,0.94,2.55c0.53,0.56,1.24,0.88,2.13,0.96c0.76,0.07,1.45-0.05,2.06-0.35
			c0.61-0.3,1.12-0.72,1.54-1.28c0.42-0.55,0.8-1.32,1.14-2.29c0.34-0.97,0.55-1.98,0.64-3.01c0.01-0.11,0.02-0.28,0.03-0.5
			c-0.57,0.75-1.3,1.33-2.21,1.75c-0.9,0.42-1.86,0.58-2.86,0.49c-1.68-0.15-3.04-0.88-4.09-2.2c-1.05-1.32-1.49-2.97-1.32-4.96
			c0.18-2.05,0.93-3.65,2.26-4.8c1.32-1.15,2.9-1.64,4.72-1.48c1.32,0.12,2.49,0.58,3.52,1.38c1.03,0.81,1.77,1.89,2.22,3.25
			c0.45,1.36,0.57,3.29,0.34,5.78c-0.23,2.59-0.69,4.63-1.39,6.11c-0.7,1.48-1.64,2.58-2.82,3.28c-1.18,0.7-2.52,0.99-4.01,0.86
			c-1.59-0.14-2.84-0.69-3.77-1.66C135.08,279.9,134.59,278.61,134.52,277z M145.5,268.96c0.13-1.43-0.15-2.6-0.84-3.5
			c-0.69-0.91-1.56-1.41-2.63-1.5c-1.11-0.1-2.11,0.27-3.01,1.1c-0.9,0.83-1.41,1.96-1.54,3.4c-0.11,1.29,0.18,2.37,0.89,3.25
			c0.71,0.88,1.63,1.36,2.77,1.46c1.15,0.1,2.13-0.22,2.95-0.96C144.9,271.47,145.37,270.39,145.5,268.96z"/>
		<path d="M151.2,278.22l2.39-0.32c0.25,1.12,0.67,1.92,1.26,2.41c0.59,0.49,1.34,0.71,2.24,0.67c0.77-0.03,1.43-0.23,2-0.61
			c0.56-0.37,1.02-0.86,1.36-1.46c0.35-0.6,0.62-1.41,0.83-2.41c0.21-1.01,0.29-2.03,0.25-3.06c0-0.11-0.02-0.28-0.03-0.5
			c-0.47,0.81-1.12,1.49-1.97,2.02c-0.84,0.53-1.77,0.81-2.78,0.85c-1.68,0.07-3.13-0.49-4.34-1.66c-1.21-1.17-1.86-2.76-1.94-4.75
			c-0.08-2.06,0.46-3.74,1.62-5.05c1.17-1.31,2.66-1.99,4.49-2.07c1.32-0.05,2.55,0.25,3.67,0.92c1.12,0.67,2,1.65,2.62,2.94
			c0.62,1.29,0.98,3.19,1.08,5.69c0.1,2.6-0.1,4.68-0.6,6.24c-0.5,1.56-1.29,2.77-2.38,3.61c-1.08,0.85-2.37,1.3-3.87,1.36
			c-1.59,0.06-2.91-0.33-3.95-1.17S151.47,279.81,151.2,278.22z M161.07,268.85c-0.06-1.43-0.48-2.55-1.28-3.36
			c-0.8-0.81-1.73-1.19-2.8-1.15c-1.11,0.04-2.06,0.54-2.84,1.47c-0.79,0.94-1.15,2.13-1.09,3.57c0.05,1.29,0.48,2.33,1.3,3.11
			c0.81,0.78,1.79,1.14,2.94,1.1c1.16-0.05,2.09-0.49,2.8-1.33C160.79,271.41,161.12,270.28,161.07,268.85z"/>
		<path d="M176.25,280.63l-0.83-4.8l-8.7,1.5l-0.39-2.26l6.91-14.56l2.01-0.35l2.23,12.99l2.71-0.47l0.39,2.26l-2.71,0.47l0.83,4.8
			L176.25,280.63z M175.03,273.58l-1.55-9.04l-4.72,10.12L175.03,273.58z"/>
	</g>
	<g>
		<path d="M39.96,178.14l-19.94,3.34l-0.66-3.97l13.33-7.08c1.24-0.66,2.17-1.14,2.79-1.45c-0.76-0.11-1.89-0.28-3.37-0.53
			l-14.67-2.45l-0.59-3.55l19.94-3.34l0.43,2.54l-16.69,2.79l17.66,3l0.4,2.38l-16.01,8.61l16.97-2.84L39.96,178.14z"/>
		<path d="M36.7,156.27l-20.21-0.33l0.24-14.61l2.38,0.04l-0.19,11.94l6.19,0.1l0.18-11.18l2.37,0.04l-0.18,11.18l6.88,0.11
			l0.2-12.41l2.39,0.04L36.7,156.27z"/>
		<path d="M37.06,138.81l-19.94-3.35l1.49-8.84c0.3-1.78,0.71-3.1,1.22-3.96s1.27-1.5,2.27-1.9c1-0.4,2.05-0.51,3.15-0.32
			c1.41,0.24,2.53,0.9,3.35,1.97c0.82,1.08,1.19,2.6,1.14,4.55c0.45-0.64,0.87-1.12,1.26-1.42c0.84-0.65,1.84-1.23,3.02-1.74
			l6.01-2.56l-0.56,3.32l-4.59,1.94c-1.33,0.57-2.35,1.05-3.07,1.44c-0.72,0.39-1.24,0.76-1.56,1.12c-0.32,0.35-0.56,0.72-0.73,1.11
			c-0.11,0.29-0.23,0.77-0.34,1.45l-0.52,3.06l8.85,1.49L37.06,138.81z M26.37,134.3l0.95-5.67c0.2-1.21,0.24-2.17,0.1-2.89
			c-0.13-0.72-0.45-1.31-0.94-1.75c-0.49-0.45-1.06-0.72-1.7-0.83c-0.94-0.16-1.78,0.05-2.5,0.64s-1.21,1.61-1.46,3.09l-1.06,6.31
			L26.37,134.3z"/>
		<path d="M34.03,119.03l0.6-2.46c1,0.21,1.87,0.22,2.63,0.01c0.75-0.2,1.47-0.68,2.14-1.42s1.2-1.66,1.57-2.74
			c0.33-0.97,0.47-1.87,0.44-2.71c-0.03-0.84-0.24-1.52-0.62-2.05c-0.38-0.53-0.86-0.9-1.45-1.1c-0.6-0.2-1.18-0.21-1.75-0.01
			c-0.57,0.2-1.14,0.64-1.72,1.34c-0.37,0.45-1.07,1.48-2.09,3.09c-1.02,1.61-1.84,2.71-2.45,3.29c-0.79,0.75-1.62,1.23-2.48,1.44
			c-0.86,0.21-1.73,0.16-2.61-0.14c-0.97-0.33-1.78-0.91-2.43-1.74c-0.65-0.83-1.02-1.85-1.1-3.05s0.1-2.45,0.54-3.73
			c0.48-1.42,1.14-2.59,1.96-3.52c0.82-0.93,1.78-1.53,2.87-1.81c1.09-0.28,2.2-0.25,3.34,0.09l-0.64,2.49
			c-1.25-0.28-2.32-0.15-3.19,0.39c-0.87,0.54-1.56,1.55-2.06,3.02c-0.52,1.53-0.62,2.74-0.3,3.64c0.32,0.89,0.88,1.47,1.67,1.74
			c0.69,0.23,1.34,0.18,1.95-0.17c0.61-0.34,1.5-1.45,2.66-3.35c1.17-1.9,2.05-3.17,2.66-3.82c0.89-0.94,1.82-1.54,2.79-1.8
			s1.97-0.22,2.99,0.13c1.02,0.35,1.88,0.96,2.58,1.85c0.7,0.89,1.12,1.97,1.25,3.23c0.13,1.26-0.04,2.58-0.5,3.94
			c-0.59,1.73-1.34,3.1-2.24,4.1c-0.9,1-1.97,1.66-3.22,1.98C36.59,119.47,35.33,119.43,34.03,119.03z"/>
		<path d="M27.26,94.42l-2.8-1.3l1.3-2.79l2.8,1.3L27.26,94.42z M46.79,103.31l-18.32-8.54l1.13-2.42l18.32,8.54L46.79,103.31z"/>
		<path d="M49.21,97.68L31.98,87.11l1.43-2.34l19.08-0.75l-13.53-8.3l1.34-2.19L57.54,84.1l-1.43,2.34l-19.09,0.75l13.54,8.3
			L49.21,97.68z"/>
		<path d="M67.3,72.6l-6.17-5.94l-13.8-2.46l2.26-2.34l7.16,1.35c1.33,0.26,2.63,0.56,3.89,0.89c-0.34-1.17-0.69-2.53-1.05-4.07
			l-1.57-6.94l2.16-2.25l2.8,13.89l6.17,5.94L67.3,72.6z"/>
		<path d="M75.65,64.26L63.39,48.18l11.62-8.86l1.45,1.9l-9.5,7.24l3.76,4.92l8.89-6.78l1.44,1.89l-8.89,6.78l4.17,5.47l9.87-7.53
			l1.45,1.9L75.65,64.26z"/>
		<path d="M89.53,53.88l-9.53-17.83l2.42-1.29l16.85,8.99l-7.48-14l2.26-1.21l9.53,17.83l-2.42,1.29l-16.85-9.01l7.49,14.01
			L89.53,53.88z"/>
		<path d="M99.04,25.27L97.9,22.4l2.86-1.13l1.14,2.87L99.04,25.27z M107.1,45.16l-7.43-18.8l2.49-0.98l7.43,18.8L107.1,45.16z"/>
		<path d="M110.18,36.75l2.37-0.88c0.38,0.94,0.87,1.67,1.46,2.18c0.59,0.51,1.39,0.83,2.38,0.98c0.99,0.14,2.04,0.06,3.15-0.25
			c0.98-0.27,1.81-0.66,2.49-1.16c0.67-0.5,1.12-1.05,1.35-1.67s0.26-1.22,0.09-1.82c-0.17-0.61-0.49-1.1-0.97-1.46
			c-0.48-0.36-1.17-0.58-2.07-0.67c-0.58-0.06-1.82-0.06-3.73,0c-1.91,0.06-3.27,0-4.1-0.18c-1.07-0.23-1.92-0.65-2.58-1.24
			c-0.65-0.6-1.11-1.34-1.35-2.24c-0.27-0.98-0.25-1.98,0.08-2.99c0.32-1.01,0.96-1.88,1.91-2.62c0.95-0.74,2.08-1.29,3.39-1.65
			c1.45-0.4,2.78-0.52,4.01-0.35c1.23,0.16,2.27,0.61,3.11,1.35c0.84,0.74,1.44,1.68,1.8,2.81l-2.42,0.87
			c-0.47-1.2-1.18-2-2.12-2.42c-0.94-0.42-2.16-0.42-3.66-0.01c-1.56,0.43-2.62,1.03-3.17,1.8s-0.72,1.56-0.5,2.36
			c0.19,0.7,0.6,1.21,1.23,1.52c0.62,0.32,2.05,0.42,4.27,0.32c2.23-0.1,3.78-0.08,4.66,0.06c1.28,0.21,2.3,0.64,3.06,1.3
			c0.76,0.65,1.29,1.5,1.57,2.55c0.29,1.04,0.26,2.1-0.08,3.18c-0.34,1.08-1,2.03-1.97,2.84c-0.97,0.82-2.15,1.42-3.55,1.8
			c-1.76,0.49-3.31,0.64-4.65,0.45c-1.33-0.19-2.48-0.7-3.44-1.55C111.26,39.12,110.58,38.05,110.18,36.75z M118.59,43.24l0.04-2.54
			l1.78-0.49l-0.05,1.54c0.78-0.12,1.41-0.04,1.89,0.23c0.48,0.27,0.79,0.64,0.92,1.1c0.18,0.66,0.03,1.34-0.47,2.02
			c-0.5,0.69-1.39,1.2-2.68,1.56c-0.73,0.2-1.38,0.32-1.96,0.37l-0.28-1.6c0.58-0.12,1-0.22,1.26-0.29
			c0.83-0.23,1.39-0.51,1.66-0.83c0.21-0.25,0.28-0.5,0.21-0.76c-0.04-0.16-0.13-0.29-0.27-0.38c-0.13-0.1-0.35-0.15-0.65-0.16
			C119.7,42.99,119.23,43.07,118.59,43.24z"/>
		<path d="M129.7,38.37l-2.3-20.08l14.52-1.66l0.27,2.37l-11.86,1.36l0.7,6.15l11.11-1.27l0.27,2.36l-11.11,1.27l0.78,6.84
			l12.33-1.41l0.27,2.37L129.7,38.37z"/>
		<path d="M147.03,36.57l0.9-20.2l2.67,0.12l-0.37,8.29l10.5,0.47l0.37-8.29l2.67,0.12l-0.9,20.2l-2.67-0.12l0.43-9.52l-10.5-0.47
			l-0.43,9.52L147.03,36.57z"/>
		<path d="M166.46,38.02l3.18-19.96l2.64,0.42l-3.18,19.96L166.46,38.02z M169.64,16.8l0.49-3.05l3.04,0.48l-0.49,3.05L169.64,16.8z
			"/>
		<path d="M172.65,38.83l5.45-19.47l8.63,2.41c1.74,0.49,3.01,1.03,3.81,1.63c0.81,0.6,1.35,1.42,1.65,2.46
			c0.29,1.04,0.29,2.09-0.01,3.16c-0.39,1.38-1.16,2.42-2.32,3.12c-1.16,0.7-2.71,0.91-4.65,0.65c0.59,0.52,1.02,0.99,1.28,1.4
			c0.56,0.9,1.03,1.96,1.41,3.19l1.9,6.25l-3.24-0.91l-1.44-4.77c-0.43-1.38-0.8-2.45-1.11-3.2c-0.31-0.76-0.63-1.31-0.94-1.67
			c-0.32-0.36-0.66-0.64-1.03-0.85c-0.28-0.14-0.74-0.31-1.41-0.49l-2.99-0.84l-2.42,8.65L172.65,38.83z M178.27,28.68l5.54,1.55
			c1.18,0.33,2.13,0.47,2.87,0.41c0.73-0.06,1.35-0.31,1.84-0.75c0.49-0.44,0.83-0.97,1.01-1.6c0.26-0.92,0.13-1.77-0.37-2.55
			s-1.47-1.37-2.92-1.78l-6.16-1.72L178.27,28.68z"/>
		<path d="M196.99,46.84l9.61-17.79l6.67,3.6c1.36,0.73,2.35,1.5,2.98,2.31c0.63,0.8,0.97,1.7,1.03,2.7c0.06,1-0.13,1.91-0.57,2.72
			c-0.41,0.76-1,1.37-1.78,1.81c-0.78,0.45-1.69,0.65-2.75,0.62c0.9,0.9,1.44,1.88,1.61,2.95c0.17,1.07-0.03,2.13-0.59,3.16
			c-0.45,0.83-1.04,1.51-1.78,2.04c-0.74,0.53-1.47,0.84-2.2,0.95c-0.73,0.11-1.53,0.05-2.42-0.17c-0.89-0.22-1.9-0.64-3.03-1.25
			L196.99,46.84z M200.48,46.01l4.43,2.39c0.76,0.41,1.31,0.67,1.65,0.78c0.59,0.2,1.14,0.28,1.62,0.25c0.49-0.03,0.96-0.2,1.43-0.5
			c0.47-0.31,0.86-0.74,1.16-1.31c0.36-0.66,0.5-1.33,0.43-2c-0.08-0.67-0.36-1.27-0.86-1.79c-0.49-0.52-1.31-1.09-2.44-1.7
			l-4.11-2.22L200.48,46.01z M204.92,37.8l3.85,2.08c1.04,0.56,1.83,0.9,2.36,1.01c0.7,0.15,1.3,0.09,1.83-0.15
			c0.53-0.25,0.96-0.68,1.29-1.31c0.32-0.59,0.46-1.19,0.42-1.79c-0.04-0.6-0.28-1.13-0.72-1.58c-0.44-0.45-1.29-1.02-2.57-1.71
			l-3.55-1.92L204.92,37.8z"/>
		<path d="M212.32,55.38l12.22-16.11l11.65,8.83l-1.44,1.9l-9.51-7.22l-3.74,4.93l8.91,6.76l-1.43,1.89l-8.91-6.76l-4.16,5.48
			l9.89,7.5l-1.44,1.9L212.32,55.38z"/>
		<path d="M225.95,66.11l14.35-14.24l1.89,1.9l-12.65,12.56l7.01,7.07l-1.69,1.68L225.95,66.11z"/>
		<path d="M236.07,76.45l16.19-12.11l8.75,11.71l-1.91,1.43l-7.15-9.56l-4.96,3.71l6.7,8.96l-1.9,1.42l-6.7-8.96l-5.51,4.12
			l7.43,9.94l-1.91,1.43L236.07,76.45z"/>
		<path d="M246.33,90.47l17.92-9.36l3.23,6.17c0.73,1.39,1.2,2.5,1.41,3.32c0.3,1.15,0.33,2.25,0.09,3.3
			c-0.3,1.36-0.96,2.6-1.95,3.72c-1,1.12-2.3,2.09-3.89,2.93c-1.36,0.71-2.65,1.18-3.87,1.41c-1.22,0.23-2.3,0.28-3.25,0.14
			c-0.95-0.14-1.78-0.4-2.48-0.78c-0.7-0.38-1.38-0.94-2.02-1.67c-0.64-0.73-1.24-1.64-1.81-2.72L246.33,90.47z M249.69,91.73
			l2,3.83c0.62,1.18,1.21,2.05,1.78,2.61c0.57,0.56,1.16,0.93,1.77,1.12c0.86,0.27,1.84,0.31,2.95,0.13
			c1.11-0.18,2.35-0.63,3.7-1.33c1.87-0.98,3.15-2.04,3.84-3.18s0.97-2.24,0.85-3.3c-0.09-0.76-0.5-1.85-1.24-3.26l-1.97-3.76
			L249.69,91.73z"/>
		<path d="M254.87,108.06l18.87-7.26l0.96,2.5l-18.87,7.26L254.87,108.06z M274.82,100.18l2.88-1.11l1.1,2.87l-2.88,1.11
			L274.82,100.18z"/>
		<path d="M258.67,119.32l8.28-2.19l9.27-10.51l0.83,3.15l-4.87,5.41c-0.91,1-1.84,1.96-2.78,2.86c1.18,0.32,2.52,0.72,4.02,1.22
			l6.75,2.26l0.8,3.01l-13.33-4.82l-8.28,2.19L258.67,119.32z"/>
		<path d="M261.45,130.76l20.11-2.11l1.52,14.54l-2.37,0.25l-1.24-11.88l-6.16,0.65l1.16,11.12l-2.36,0.25l-1.16-11.12l-6.84,0.72
			l1.29,12.34l-2.37,0.25L261.45,130.76z"/>
		<path d="M269.57,147.44l0.1,2.53c-1.02,0.07-1.86,0.31-2.53,0.72c-0.67,0.4-1.22,1.06-1.67,1.96c-0.44,0.9-0.69,1.92-0.75,3.07
			c-0.05,1.02,0.06,1.93,0.33,2.72c0.27,0.79,0.65,1.39,1.16,1.8c0.51,0.41,1.08,0.62,1.7,0.65c0.63,0.03,1.2-0.13,1.69-0.47
			c0.49-0.34,0.92-0.93,1.28-1.76c0.24-0.53,0.62-1.71,1.16-3.55c0.53-1.83,1.02-3.11,1.45-3.84c0.55-0.94,1.21-1.63,1.98-2.07
			c0.77-0.44,1.62-0.63,2.55-0.59c1.02,0.05,1.96,0.38,2.82,1c0.86,0.62,1.49,1.5,1.9,2.63c0.41,1.13,0.58,2.38,0.51,3.74
			c-0.07,1.5-0.37,2.81-0.91,3.93c-0.54,1.12-1.29,1.97-2.25,2.54s-2.04,0.85-3.23,0.84l-0.07-2.57c1.28-0.08,2.27-0.5,2.96-1.26
			c0.69-0.76,1.07-1.92,1.15-3.47c0.08-1.62-0.16-2.81-0.72-3.58c-0.56-0.77-1.25-1.17-2.09-1.21c-0.73-0.03-1.33,0.2-1.83,0.7
			c-0.49,0.49-1.04,1.81-1.63,3.96c-0.59,2.15-1.09,3.62-1.5,4.41c-0.6,1.15-1.33,1.98-2.18,2.51c-0.86,0.52-1.83,0.75-2.91,0.7
			c-1.07-0.05-2.07-0.41-2.99-1.07c-0.92-0.66-1.62-1.58-2.09-2.76c-0.47-1.18-0.68-2.49-0.61-3.93c0.09-1.83,0.43-3.35,1.02-4.56
			c0.59-1.21,1.44-2.14,2.54-2.79C266.99,147.72,268.22,147.41,269.57,147.44z"/>
		<path d="M261.67,166.1l19.97,3.12l-0.41,2.64l-19.97-3.12L261.67,166.1z M282.9,169.22l3.05,0.48l-0.47,3.04l-3.05-0.48
			L282.9,169.22z"/>
	</g>
</g>
</svg>
